<svg class="vL6BBg" viewBox="0 0 111.77018512998563 33.724668053147795"><path class="SQ2ADw" d="M106.77018512998563,5.9C104.57018512998563,2.4 100.67018512998564,0 96.17018512998564,0L12.5,0C5.6,0 0,5.6 0,12.5L0,17.824668053147803C0,21.924668053147798 2,25.524668053147806 5,27.824668053147803C7.2,31.324668053147818 11.1,33.724668053147795 15.451679991296706,33.724668053147795L99.27018512998562,33.724668053147795C106.17018512998563,33.724668053147795 111.7701851299856,28.1246680531478 111.7701851299856,21.224668053147795L111.7701851299856,15.9C111.77018512998563,11.8 109.77018512998563,8.2 106.77018512998563,5.9M1,17.824668053147803L1,12.5C1,6.2 6.2,1 12.5,1L96.17018512998563,1C102.47018512998562,1 107.67018512998563,6.2 107.67018512998563,12.5L107.67018512998563,17.824668053147803C107.67018512998563,24.1246680531478 102.47018512998562,29.324668053147803 96.17018512998563,29.324668053147803L12.5,29.324668053147803C6.2,29.324668053147803 1,24.22466805314781 1,17.824668053147803M110.87018512998563,21.22466805314781C110.87018512998563,27.524668053147806 105.57018512998563,32.724668053147795 99.27018512998563,32.724668053147795L15.451679991296706,32.724668053147795C12.4,32.724668053147795 9.5,31.424668053147784 7.4,29.224668053147795C9,29.924668053147784 10.7,30.32466805314779 12.6,30.32466805314779L96.27018512998563,30.32466805314779C103.17018512998564,30.32466805314779 108.77018512998563,24.724668053147795 108.77018512998563,17.82466805314779L108.77018512998563,12.5C108.77018512998563,11.1 108.47018512998562,9.7 108.07018512998565,8.4C109.77018512998563,10.4 110.87018512998566,13 110.87018512998566,15.9L110.87018512998566,21.22466805314781" fill="#f3f3f3"></path></svg>