<?xml version="1.0" encoding="utf-8"?>
<!-- Generator: Adobe Illustrator 25.2.1, SVG Export Plug-In . SVG Version: 6.00 Build 0)  -->
<svg version="1.1" id="Layer_1" xmlns="http://www.w3.org/2000/svg" xmlns:xlink="http://www.w3.org/1999/xlink" x="0px" y="0px"
	 viewBox="0 0 111.8 33.7" style="enable-background:new 0 0 111.8 33.7;" xml:space="preserve">
<style type="text/css">
	.st0{fill:#F3F3F3;}
	.st1{fill:#FFFFFF;}
</style>
<path class="st0" d="M106.8,5.9C104.6,2.4,100.7,0,96.2,0H12.5C5.6,0,0,5.6,0,12.5v5.3c0,4.1,2,7.7,5,10c2.2,3.5,6.1,5.9,10.5,5.9
	h83.8c6.9,0,12.5-5.6,12.5-12.5v-5.3C111.8,11.8,109.8,8.2,106.8,5.9"/>
<path class="st1" d="M1,17.8v-5.3C1,6.2,6.2,1,12.5,1h83.7c6.3,0,11.5,5.2,11.5,11.5v5.3c0,6.3-5.2,11.5-11.5,11.5H12.5
	C6.2,29.3,1,24.2,1,17.8"/>
<path class="st0" d="M110.9,21.2c0,6.3-5.3,11.5-11.6,11.5H15.5c-3.1,0-6-1.3-8.1-3.5c1.6,0.7,3.3,1.1,5.2,1.1h83.7
	c6.9,0,12.5-5.6,12.5-12.5v-5.3c0-1.4-0.3-2.8-0.7-4.1c1.7,2,2.8,4.6,2.8,7.5V21.2"/>
</svg>
