<?xml version="1.0" encoding="UTF-8"?><svg xmlns="http://www.w3.org/2000/svg" xmlns:xlink="http://www.w3.org/1999/xlink" height="459.1" preserveAspectRatio="xMidYMid meet" version="1.0" viewBox="-5.3 -5.1 609.2 459.1" width="609.2" zoomAndPan="magnify"><g><g id="change1_1"><path d="M 547.113281 53.292969 C 520.316406 29.722656 485.929688 17.335938 450.523438 10.703125 C 440.890625 8.902344 431.183594 7.523438 421.535156 6.460938 C 316.539062 -5.09375 207.707031 16.558594 115.042969 67.253906 C 68.429688 92.753906 16.3125 132.699219 5.28125 188.117188 C -5.332031 241.429688 22.707031 301.425781 67.949219 330.199219 C 113.21875 358.988281 176.214844 357.480469 219.234375 325.410156 C 235.234375 313.480469 251.304688 289.84375 269.667969 271.90625 C 255.296875 319.097656 225.851562 376.109375 167.3125 433.90625 C 167.3125 433.90625 291.714844 380.636719 367.058594 276.410156 C 402.335938 299.457031 440.449219 311.5625 484.859375 300.667969 C 535.617188 288.21875 578.117188 246.367188 590.988281 195.714844 C 603.859375 145.0625 586.351562 87.8125 547.113281 53.292969" fill="#fff"/></g><g id="change2_1"><path d="M 450.523438 10.703125 C 440.890625 8.902344 431.183594 7.523438 421.535156 6.460938 C 316.535156 -5.09375 207.707031 16.558594 115.042969 67.253906 C 68.429688 92.753906 16.3125 132.699219 5.28125 188.117188 C -5.332031 241.429688 22.707031 301.425781 67.949219 330.199219 C 90.800781 344.730469 118.167969 351.53125 145.199219 350.589844 C 100.273438 321.6875 72.488281 261.964844 83.058594 208.863281 C 94.089844 153.441406 146.207031 113.496094 192.820312 87.996094 C 285.484375 37.300781 394.316406 15.652344 499.3125 27.203125 C 502.199219 27.523438 505.089844 27.878906 507.980469 28.257812 C 489.921875 19.957031 470.382812 14.425781 450.523438 10.703125" fill="#f3f3f3"/></g><g id="change3_1"><path d="M 547.574219 52.769531 L 552.570312 57.476562 C 553.390625 58.269531 554.257812 59.019531 555.042969 59.851562 L 557.363281 62.382812 L 559.679688 64.914062 C 560.4375 65.769531 561.269531 66.566406 561.949219 67.488281 L 566.214844 72.867188 C 571.691406 80.183594 576.734375 87.886719 580.714844 96.148438 L 582.28125 99.207031 C 582.804688 100.226562 583.207031 101.300781 583.679688 102.347656 L 586.402344 108.660156 L 588.71875 115.140625 C 589.09375 116.222656 589.503906 117.296875 589.851562 118.390625 L 590.804688 121.695312 C 593.570312 130.464844 595.09375 139.570312 596.238281 148.699219 L 596.839844 155.582031 C 596.972656 156.730469 596.972656 157.882812 596.992188 159.035156 L 597.0625 162.496094 L 597.125 165.960938 C 597.183594 167.113281 597.042969 168.265625 597.011719 169.417969 L 596.664062 176.347656 C 596.4375 178.660156 596.121094 180.976562 595.847656 183.296875 L 595.410156 186.777344 L 594.769531 190.128906 L 594.128906 193.484375 L 593.808594 195.160156 L 593.648438 196 L 593.609375 196.210938 L 593.566406 196.410156 L 593.535156 196.515625 L 593.425781 196.933594 L 591.617188 203.664062 C 591.082031 205.933594 590.25 208.105469 589.5 210.304688 L 588.351562 213.601562 L 587.777344 215.253906 C 587.578125 215.800781 587.328125 216.324219 587.105469 216.863281 L 584.355469 223.285156 C 584.121094 223.816406 583.914062 224.363281 583.652344 224.886719 L 582.855469 226.441406 L 581.265625 229.550781 C 579.261719 233.777344 576.703125 237.679688 574.335938 241.710938 C 573.066406 243.667969 571.695312 245.5625 570.378906 247.492188 L 568.378906 250.378906 L 566.203125 253.128906 C 564.742188 254.953125 563.316406 256.8125 561.816406 258.609375 L 557.105469 263.820312 C 555.574219 265.605469 553.855469 267.203125 552.171875 268.835938 L 549.640625 271.28125 C 548.800781 272.097656 547.964844 272.925781 547.050781 273.664062 L 541.679688 278.230469 L 540.332031 279.367188 L 538.917969 280.421875 L 536.085938 282.527344 C 532.378906 285.445312 528.335938 287.875 524.382812 290.460938 C 522.371094 291.691406 520.273438 292.78125 518.214844 293.941406 L 515.105469 295.652344 C 514.050781 296.183594 512.96875 296.660156 511.898438 297.167969 C 509.75 298.164062 507.613281 299.179688 505.445312 300.152344 L 498.65625 302.75 L 496.957031 303.394531 C 496.386719 303.613281 495.8125 303.835938 495.277344 303.980469 L 492.011719 304.964844 L 488.742188 305.949219 L 487.105469 306.441406 L 486.699219 306.566406 L 486.277344 306.679688 L 486.058594 306.730469 L 485.191406 306.933594 L 478.253906 308.535156 C 475.925781 308.996094 473.570312 309.355469 471.222656 309.765625 C 461.800781 311.160156 452.199219 311.648438 442.632812 311.09375 C 433.070312 310.519531 423.558594 308.929688 414.359375 306.367188 C 405.15625 303.804688 396.246094 300.378906 387.691406 296.328125 C 379.136719 292.28125 370.929688 287.621094 363.042969 282.554688 L 373.003906 280.710938 L 368.117188 287.285156 L 365.671875 290.574219 L 363.125 293.777344 L 358.03125 300.1875 L 352.75 306.433594 L 350.101562 309.550781 L 347.375 312.59375 C 345.546875 314.617188 343.75 316.664062 341.902344 318.667969 C 338.128906 322.59375 334.4375 326.605469 330.539062 330.402344 C 328.597656 332.308594 326.710938 334.269531 324.726562 336.136719 L 318.808594 341.746094 C 316.847656 343.636719 314.792969 345.414062 312.789062 347.25 C 310.773438 349.074219 308.765625 350.90625 306.6875 352.65625 L 300.507812 357.96875 L 294.222656 363.148438 C 292.140625 364.894531 289.996094 366.554688 287.871094 368.242188 C 285.738281 369.917969 283.625 371.628906 281.453125 373.25 L 274.96875 378.164062 L 268.386719 382.949219 C 266.203125 384.558594 263.960938 386.074219 261.746094 387.644531 C 259.535156 389.210938 257.296875 390.738281 255.046875 392.25 C 250.574219 395.308594 246.027344 398.261719 241.472656 401.191406 L 234.601562 405.527344 L 227.671875 409.769531 L 220.683594 413.914062 L 213.644531 417.96875 C 208.921875 420.628906 204.1875 423.257812 199.390625 425.785156 C 194.605469 428.335938 189.769531 430.785156 184.894531 433.183594 C 182.457031 434.382812 180.003906 435.558594 177.535156 436.710938 C 175.046875 437.878906 172.621094 438.976562 169.976562 440.117188 L 137.765625 454 L 162.566406 429.097656 L 170.988281 420.636719 L 173.097656 418.523438 L 175.136719 416.347656 L 179.214844 411.992188 L 183.285156 407.632812 L 187.226562 403.152344 C 189.847656 400.164062 192.519531 397.214844 195.007812 394.117188 L 198.808594 389.519531 C 200.082031 387.996094 201.34375 386.460938 202.542969 384.875 C 204.960938 381.726562 207.441406 378.617188 209.816406 375.433594 L 216.820312 365.792969 L 223.53125 355.949219 L 229.921875 345.894531 L 235.984375 335.644531 C 237.882812 332.164062 239.859375 328.71875 241.734375 325.21875 C 243.527344 321.679688 245.425781 318.1875 247.136719 314.609375 L 249.695312 309.230469 L 250.96875 306.539062 L 252.164062 303.816406 L 254.558594 298.363281 C 255.359375 296.546875 256.058594 294.6875 256.8125 292.851562 C 257.539062 291.007812 258.328125 289.183594 259.023438 287.324219 L 261.097656 281.742188 C 261.8125 279.886719 262.457031 278.011719 263.082031 276.125 L 264.996094 270.484375 L 273.078125 275.402344 C 265.585938 282.53125 258.574219 290.375 251.546875 298.335938 C 244.488281 306.273438 237.46875 314.40625 229.386719 321.839844 L 227.867188 323.226562 L 226.246094 324.601562 L 224.621094 325.972656 L 223.035156 327.1875 L 221.367188 328.457031 L 219.679688 329.625 C 218.542969 330.390625 217.445312 331.214844 216.273438 331.921875 C 211.699219 334.9375 206.878906 337.539062 201.964844 339.910156 C 199.515625 341.113281 196.996094 342.15625 194.484375 343.21875 C 191.941406 344.1875 189.402344 345.175781 186.8125 346.015625 C 181.652344 347.730469 176.410156 349.210938 171.085938 350.28125 C 165.769531 351.371094 160.398438 352.1875 155.003906 352.683594 C 149.605469 353.15625 144.1875 353.320312 138.777344 353.253906 C 127.960938 353.023438 117.164062 351.664062 106.683594 349.007812 C 104.054688 348.382812 101.46875 347.59375 98.878906 346.824219 C 96.3125 345.976562 93.746094 345.144531 91.222656 344.175781 C 86.171875 342.257812 81.199219 340.117188 76.421875 337.582031 C 75.210938 336.988281 74.03125 336.273438 72.839844 335.628906 L 71.054688 334.628906 L 67.65625 332.550781 L 66.769531 332.007812 L 65.925781 331.441406 L 62.554688 329.1875 C 58.140625 326.066406 53.914062 322.691406 49.890625 319.09375 C 41.863281 311.875 34.652344 303.773438 28.410156 294.980469 C 25.25 290.613281 22.371094 286.039062 19.714844 281.351562 C 17.039062 276.667969 14.628906 271.832031 12.46875 266.886719 C 3.84375 247.128906 -0.832031 225.429688 0.121094 203.601562 C 0.390625 198.183594 1.023438 192.609375 1.96875 187.324219 C 3 181.945312 4.371094 176.628906 6.066406 171.414062 C 7.804688 166.214844 9.90625 161.144531 12.261719 156.195312 C 14.636719 151.257812 17.359375 146.503906 20.261719 141.867188 C 26.128906 132.636719 32.949219 124.0625 40.371094 116.101562 C 47.785156 108.128906 55.835938 100.804688 64.25 93.976562 C 72.679688 87.160156 81.453125 80.808594 90.519531 74.929688 C 95.050781 71.984375 99.644531 69.171875 104.296875 66.414062 L 107.816406 64.363281 L 111.289062 62.40625 C 113.683594 61.078125 116.042969 59.863281 118.421875 58.585938 L 125.546875 54.800781 L 129.113281 52.914062 C 130.296875 52.277344 131.53125 51.738281 132.738281 51.144531 L 147.296875 44.1875 C 157.160156 39.894531 167.019531 35.578125 177.121094 31.875 C 197.269531 24.367188 217.816406 17.835938 238.789062 13.097656 C 259.722656 8.230469 280.953125 4.726562 302.289062 2.488281 C 323.644531 0.394531 345.097656 -0.332031 366.488281 0.132812 L 382.523438 0.714844 L 398.554688 1.902344 C 399.886719 2.011719 401.230469 2.082031 402.550781 2.21875 L 406.511719 2.671875 L 414.4375 3.554688 L 422.40625 4.4375 C 425.050781 4.785156 427.695312 5.15625 430.335938 5.550781 C 435.617188 6.335938 440.886719 7.230469 446.128906 8.238281 C 448.757812 8.738281 451.363281 9.28125 453.972656 9.863281 L 457.886719 10.710938 L 461.785156 11.628906 C 472.167969 14.105469 482.429688 17.140625 492.433594 20.867188 C 502.414062 24.640625 512.222656 28.945312 521.46875 34.296875 C 523.761719 35.664062 526.097656 36.960938 528.324219 38.433594 L 531.699219 40.585938 L 534.984375 42.878906 C 537.199219 44.363281 539.289062 46.046875 541.417969 47.664062 C 543.539062 49.296875 545.507812 51.0625 547.5625 52.757812 Z M 546.660156 53.828125 C 544.609375 52.148438 542.617188 50.367188 540.519531 48.765625 C 538.414062 47.179688 536.359375 45.527344 534.152344 44.058594 L 530.894531 41.792969 L 527.542969 39.671875 C 525.339844 38.210938 523.011719 36.945312 520.722656 35.621094 C 511.496094 30.441406 501.742188 26.222656 491.761719 22.726562 C 486.777344 20.953125 481.707031 19.4375 476.617188 17.996094 C 471.5 16.648438 466.363281 15.382812 461.179688 14.320312 C 450.824219 12.140625 440.347656 10.585938 429.832031 9.425781 C 427.203125 9.132812 424.570312 8.867188 421.9375 8.625 L 414.03125 8.054688 L 406.078125 7.503906 L 402.097656 7.238281 C 400.773438 7.160156 399.457031 7.15625 398.136719 7.109375 L 382.328125 6.679688 L 366.480469 6.84375 C 345.359375 7.371094 324.316406 9.171875 303.445312 12.015625 C 282.597656 15.09375 261.964844 19.304688 241.59375 24.488281 L 226.375 28.59375 L 211.3125 33.222656 L 207.550781 34.390625 L 203.824219 35.671875 L 196.378906 38.234375 C 193.898438 39.097656 191.40625 39.925781 188.9375 40.816406 L 181.589844 43.65625 L 174.234375 46.46875 C 173.015625 46.949219 171.777344 47.386719 170.566406 47.894531 L 166.945312 49.441406 L 152.464844 55.632812 L 138.207031 62.316406 C 135.8125 63.394531 133.488281 64.613281 131.152344 65.8125 L 124.144531 69.40625 C 121.824219 70.605469 119.4375 71.789062 117.167969 73.003906 L 113.671875 74.910156 L 110.265625 76.8125 C 105.722656 79.378906 101.191406 82.019531 96.75 84.769531 C 92.316406 87.539062 87.910156 90.347656 83.597656 93.285156 C 79.292969 96.234375 75.039062 99.257812 70.902344 102.425781 C 54.390625 115.082031 39.125 129.535156 27.398438 146.578125 C 24.503906 150.847656 21.769531 155.230469 19.367188 159.789062 C 16.980469 164.351562 14.828125 169.039062 13.015625 173.859375 C 11.246094 178.691406 9.765625 183.632812 8.644531 188.664062 C 7.566406 193.8125 6.851562 198.800781 6.421875 203.984375 C 4.824219 224.65625 8.730469 245.757812 16.808594 265.027344 C 24.882812 284.320312 37.128906 301.964844 52.699219 315.957031 C 68.25 329.972656 87.421875 339.75 107.785156 344.472656 C 117.949219 346.882812 128.402344 348.03125 138.832031 348.089844 C 144.050781 348.097656 149.261719 347.773438 154.441406 347.203125 C 159.617188 346.597656 164.746094 345.6875 169.8125 344.519531 C 174.886719 343.367188 179.859375 341.832031 184.738281 340.074219 C 187.1875 339.222656 189.566406 338.191406 191.960938 337.199219 C 194.3125 336.117188 196.675781 335.058594 198.960938 333.84375 C 203.542969 331.457031 208.023438 328.863281 212.238281 325.890625 C 213.320312 325.195312 214.328125 324.382812 215.371094 323.632812 L 216.925781 322.488281 L 218.394531 321.296875 L 219.933594 320.039062 L 221.3125 318.789062 L 222.695312 317.542969 L 224.074219 316.195312 C 231.433594 309 238.097656 300.800781 244.894531 292.636719 C 251.679688 284.449219 258.585938 276.191406 266.253906 268.414062 L 280.09375 254.378906 L 274.339844 273.328125 L 272.554688 279.207031 C 271.96875 281.171875 271.367188 283.128906 270.691406 285.0625 L 268.730469 290.890625 C 268.078125 292.832031 267.324219 294.738281 266.617188 296.660156 C 265.886719 298.574219 265.210938 300.511719 264.433594 302.40625 L 262.105469 308.09375 L 260.9375 310.9375 L 259.695312 313.75 L 257.191406 319.363281 C 255.515625 323.105469 253.652344 326.753906 251.890625 330.457031 C 250.039062 334.113281 248.113281 337.730469 246.210938 341.359375 L 240.132812 352.042969 L 233.71875 362.527344 L 226.976562 372.796875 L 219.925781 382.859375 C 217.539062 386.183594 215.019531 389.410156 212.570312 392.691406 C 211.355469 394.34375 210.078125 395.9375 208.789062 397.527344 L 204.941406 402.3125 C 202.414062 405.535156 199.714844 408.605469 197.058594 411.71875 L 193.0625 416.375 L 188.9375 420.914062 L 184.804688 425.445312 L 182.734375 427.710938 L 180.601562 429.910156 L 172.0625 438.714844 L 164.652344 427.691406 C 166.910156 426.683594 169.347656 425.542969 171.691406 424.402344 C 174.058594 423.261719 176.417969 422.089844 178.769531 420.894531 C 183.472656 418.503906 188.15625 416.050781 192.789062 413.503906 C 197.4375 410.984375 202.035156 408.371094 206.617188 405.726562 L 213.457031 401.695312 L 220.238281 397.574219 L 226.964844 393.363281 L 233.632812 389.058594 C 238.046875 386.148438 242.453125 383.222656 246.789062 380.191406 C 248.96875 378.695312 251.136719 377.183594 253.277344 375.632812 C 255.417969 374.082031 257.59375 372.578125 259.703125 370.988281 L 266.066406 366.261719 L 272.355469 361.441406 C 274.46875 359.855469 276.511719 358.1875 278.582031 356.542969 C 280.640625 354.894531 282.722656 353.269531 284.738281 351.566406 L 290.824219 346.507812 L 296.804688 341.324219 C 298.8125 339.609375 300.753906 337.832031 302.710938 336.066406 C 304.65625 334.289062 306.65625 332.566406 308.554688 330.738281 L 314.296875 325.3125 C 316.21875 323.507812 318.042969 321.613281 319.925781 319.769531 C 323.707031 316.101562 327.269531 312.230469 330.921875 308.445312 L 336.234375 302.617188 L 338.886719 299.699219 L 341.460938 296.714844 L 346.589844 290.730469 L 351.535156 284.601562 L 354.003906 281.535156 L 356.375 278.394531 L 361.113281 272.113281 L 365.34375 266.5 L 371.070312 270.269531 C 385.808594 279.976562 401.53125 288.039062 418.167969 292.886719 C 426.464844 295.355469 434.988281 296.941406 443.585938 297.609375 C 452.183594 298.3125 460.855469 298.109375 469.46875 297.058594 C 471.617188 296.746094 473.777344 296.492188 475.921875 296.144531 L 482.332031 294.875 L 483.136719 294.71875 L 483.335938 294.679688 C 483.5625 294.621094 483.140625 294.734375 483.222656 294.710938 L 483.324219 294.683594 L 483.738281 294.574219 L 485.386719 294.132812 L 488.6875 293.253906 L 491.984375 292.375 C 492.554688 292.238281 493.046875 292.058594 493.546875 291.886719 L 495.054688 291.367188 L 501.105469 289.308594 L 507.144531 286.785156 C 508.148438 286.355469 509.167969 285.957031 510.160156 285.503906 L 513.089844 284.027344 C 515.035156 283.027344 517.035156 282.117188 518.953125 281.054688 C 522.71875 278.816406 526.597656 276.734375 530.167969 274.164062 L 532.902344 272.316406 L 534.273438 271.394531 L 535.578125 270.386719 L 540.800781 266.335938 C 541.691406 265.683594 542.507812 264.941406 543.332031 264.210938 L 545.808594 262.019531 C 547.464844 260.558594 549.148438 259.125 550.667969 257.519531 L 555.355469 252.828125 C 556.847656 251.203125 558.277344 249.511719 559.746094 247.855469 L 561.9375 245.359375 L 563.960938 242.722656 C 565.296875 240.960938 566.6875 239.226562 567.984375 237.429688 C 570.40625 233.722656 573.042969 230.128906 575.132812 226.207031 L 576.792969 223.316406 L 577.625 221.867188 C 577.898438 221.382812 578.117188 220.875 578.367188 220.378906 L 581.277344 214.375 C 581.515625 213.871094 581.78125 213.378906 581.996094 212.867188 L 582.617188 211.320312 L 583.859375 208.222656 C 584.675781 206.152344 585.578125 204.105469 586.191406 201.960938 L 588.226562 195.589844 L 588.355469 195.191406 L 588.386719 195.09375 C 588.40625 195.039062 588.363281 195.203125 588.394531 195.085938 L 588.441406 194.878906 L 588.640625 194.046875 L 589.039062 192.386719 L 589.839844 189.066406 L 590.632812 185.746094 L 591.164062 182.46875 C 591.503906 180.277344 591.890625 178.097656 592.195312 175.890625 L 592.789062 169.195312 C 592.863281 168.078125 593.046875 166.964844 593.035156 165.84375 L 593.097656 162.476562 L 593.164062 159.109375 C 593.1875 157.988281 593.230469 156.863281 593.144531 155.742188 L 592.820312 149.003906 L 592.738281 147.320312 L 592.542969 145.644531 L 592.15625 142.289062 C 591.867188 140.058594 591.691406 137.804688 591.210938 135.601562 L 589.964844 128.953125 C 589.5 126.75 588.871094 124.582031 588.332031 122.390625 L 587.492188 119.109375 C 587.175781 118.027344 586.792969 116.964844 586.445312 115.890625 L 584.304688 109.460938 L 581.757812 103.183594 C 581.316406 102.140625 580.945312 101.070312 580.449219 100.054688 L 578.96875 97.003906 C 575.164062 88.792969 570.289062 81.117188 564.96875 73.808594 L 560.78125 68.460938 C 560.117188 67.546875 559.296875 66.757812 558.554688 65.902344 L 556.277344 63.386719 L 553.996094 60.871094 C 553.226562 60.042969 552.371094 59.296875 551.5625 58.503906 L 546.648438 53.820312 L 546.660156 53.828125" fill="#231f20"/></g></g></svg>