<?xml version="1.0" encoding="utf-8"?>
<!-- Generator: Adobe Illustrator 25.2.1, SVG Export Plug-In . SVG Version: 6.00 Build 0)  -->
<svg version="1.1" id="Layer_1" xmlns="http://www.w3.org/2000/svg" xmlns:xlink="http://www.w3.org/1999/xlink" x="0px" y="0px"
	 viewBox="0 0 360.5 454" style="enable-background:new 0 0 360.5 454;" xml:space="preserve">
<style type="text/css">
	.st0{fill:#181425;}
	.st1{fill:#3A4466;}
	.st2{fill:#C0CBDC;}
	.st3{fill:#2CE8F5;}
</style>
<g id="change1_1">
	<path class="st0" d="M339.1,205.7l19.2,46.2l-9.2,3.8l11.5,27.7l-9.2,3.8l7.7,18.5l-9.2,3.8l7.7,18.5l-9.2,3.8l3.8,9.2l-9.2,3.8
		l3.8,9.2l-9.2,3.8l3.8,9.2l-9.2,3.8l3.8,9.2l-18.5,7.7l3.8,9.2l-18.5,7.7l3.8,9.2l-18.5,7.7l3.8,9.2l-27.7,11.5L236.4,454l-3.8-9.2
		l-18.5,7.7l-3.8-9.2l-18.5,7.7l-3.8-9.2l-18.5,7.7l-3.8-9.2l-9.2,3.8l-3.8-9.2l-9.2,3.8l-3.8-9.2l-9.2,3.8l-3.8-9.2l-9.2,3.8
		l-7.7-18.5l-9.2,3.8l-7.7-18.5l-9.2,3.8l-7.7-18.5l-3.8-9.2l-9.2,3.8l-11.5-27.7l-7.7-18.5l9.2-3.8l-19.2-46.2l9.2-3.8l-11.5-27.7
		l9.2-3.8l-11.5-27.7l9.2-3.8l-3.8-9.2l-7.7-18.5l-9.2,3.8L2.3,150.5l9.2-3.8l-3.8-9.2L0,119l9.2-3.8L1.6,96.7l9.2-3.8L7,83.6
		l9.2-3.8l-3.8-9.2l18.5-7.7L27,53.6l27.7-11.5l-3.8-9.2l18.5-7.7L65.5,16L84,8.3l18.5-7.7l3.8,9.2l18.5-7.7l3.8,9.2L156.3,0
		l3.8,9.2l18.5-7.7l3.8,9.2l9.2-3.8l3.8,9.2l9.2-3.8l7.7,18.5l9.2-3.8l11.5,27.7l9.2-3.8l15.3,36.9l-9.2,3.8l11.5,27.7l9.2-3.8
		l11.5,27.7l9.2-3.8l11.5,27.7l9.2-3.8l19.2,46.2L339.1,205.7z"/>
</g>
<g id="change2_1">
	<path class="st1" d="M320.6,213.3l-19.2-46.2l-9.2,3.8l-11.5-27.7l-9.2,3.8l3.8,9.2l-9.2,3.8l11.5,27.7l-9.2,3.8l3.8,9.2
		l-27.7,11.5l-3.8-9.2l-18.5,7.7l-3.8-9.2l-9.2,3.8l-3.8-9.2l-9.2,3.8l-3.8-9.2l-9.2,3.8l-19.2-46.2l-9.2,3.8l-3.8-9.2l-18.5,7.7
		l3.8,9.2l-9.2,3.8L146,210l-9.2,3.8l3.8,9.2l-9.2,3.8l3.8,9.2L126,240l3.8,9.2l-18.5,7.7l3.8,9.2l-27.7,11.5l-3.8-9.2l-9.2,3.8
		l-11.5-27.7l-9.2,3.8l-3.8-9.2l-11.5-27.7l-9.2,3.8l11.5,27.7l11.5,27.7l-9.2,3.8l-9.2,3.8l19.2,46.2l-9.2,3.8l7.7,18.5l9.2-3.8
		l11.5,27.7l3.8,9.2L85,376l7.7,18.5l9.2-3.8l7.7,18.5l7.7,18.5l9.2-3.8l9.2-3.8l3.8,9.2l3.8,9.2l9.2-3.8l9.2-3.8l3.8,9.2l3.8,9.2
		l18.5-7.7l3.8,9.2l18.5-7.7l18.5-7.7l3.8,9.2l55.4-23l-3.8-9.2l18.5-7.7l-3.8-9.2l18.5-7.7l-3.8-9.2l18.5-7.7l-3.8-9.2l9.2-3.8
		l-3.8-9.2l9.2-3.8l-3.8-9.2l9.2-3.8l-7.7-18.5l9.2-3.8l-7.7-18.5l9.2-3.8l-11.5-27.7l9.2-3.8l-19.2-46.2L320.6,213.3z M258,401.7
		l-9.2,3.8l-3.8-9.2l-18.5,7.7l3.8,9.2l-9.2,3.8l-3.8-9.2l-18.5,7.7l-3.8-9.2l18.5-7.7l3.8,9.2l9.2-3.8l-3.8-9.2l27.7-11.5
		L258,401.7z M295,386.4l-9.2,3.8l-3.8-9.2l-9.2,3.8l3.8,9.2l-9.2,3.8l-7.7-18.5l18.5-7.7l3.8,9.2l9.2-3.8L295,386.4z M10.8,92.8
		L20,89l-3.8-9.2L7,83.6L10.8,92.8z M11.5,146.7l-9.2,3.8l15.3,36.9l9.2-3.8L11.5,146.7z M62.9,244.5l9.2-3.8l11.5,27.7l27.7-11.5
		l-3.8-9.2L126,240l-3.8-9.2l9.2-3.8l-3.8-9.2l9.2-3.8l-19.2-46.2l9.2-3.8l-3.8-9.2l9.2-3.8l-3.8-9.2l-9.2,3.8l-3.8-9.2l-9.2,3.8
		l-3.8-9.2l-9.2,3.8L66.2,69.9l9.2-3.8l-3.8-9.2l9.2-3.8L77,43.7l9.2-3.8l-3.8-9.2L54.7,42.1l3.8,9.2L30.9,62.9l-18.5,7.7l3.8,9.2
		l18.5-7.7l3.8,9.2l-9.2,3.8l11.5,27.7l-9.2,3.8l15.3,36.9l-9.2,3.8l7.7,18.5l-9.2,3.8l7.7,18.5l-9.2,3.8l3.8,9.2l9.2-3.8
		L62.9,244.5z M114,28.4l3.8,9.2l9.2-3.8l3.8,9.2l9.2-3.8l26.8,64.7l-9.2,3.8l3.8,9.2l-9.2,3.8l3.8,9.2l-9.2,3.8l3.8,9.2l9.2-3.8
		l3.8,9.2l9.2-3.8l19.2,46.2l9.2-3.8l3.8,9.2l9.2-3.8l3.8,9.2l18.5-7.7l3.8,9.2l27.7-11.5L256.9,164l9.2-3.8l-26.8-64.7l-9.2,3.8
		l-7.7-18.5l-9.2,3.8l-15.3-36.9l-9.2,3.8l-11.5-27.7l-9.2,3.8l-7.7-18.5l-27.7,11.5l-3.8-9.2L100.9,23l3.8,9.2L114,28.4z
		 M97.1,13.8l-18.5,7.7l3.8,9.2l18.5-7.7L97.1,13.8z M16.9,133.6l-9.2,3.8l3.8,9.2l9.2-3.8L16.9,133.6z"/>
</g>
<g id="change1_2">
	<path class="st0" d="M339.1,205.7l19.2,46.2l-9.2,3.8l11.5,27.7l-9.2,3.8l7.7,18.5l-9.2,3.8l7.7,18.5l-9.2,3.8l3.8,9.2l-9.2,3.8
		l3.8,9.2l-9.2,3.8l3.8,9.2l-9.2,3.8l3.8,9.2l-18.5,7.7l-3.8-9.2l-3.8-9.2l9.2-3.8l-3.8-9.2l9.2-3.8l-3.8-9.2l-9.2,3.8l-3.8-9.2
		l9.2-3.8l-3.8-9.2l9.2-3.8l-3.8-9.2l-9.2,3.8l-3.8-9.2l9.2-3.8l-3.8-9.2l9.2-3.8l-3.8-9.2l-9.2,3.8l-3.8-9.2l9.2-3.8l-3.8-9.2
		l-9.2,3.8l-3.8-9.2l9.2-3.8l-3.8-9.2l9.2-3.8l-3.8-9.2l-9.2,3.8l-3.8-9.2l9.2-3.8l-3.8-9.2l-9.2,3.8l-3.8-9.2l9.2-3.8l-3.8-9.2
		l-9.2,3.8l-3.8-9.2l-9.2,3.8L256.9,164l9.2-3.8l-15.3-36.9l-11.5-27.7l-9.2,3.8l-7.7-18.5l-9.2,3.8l-15.3-36.9l-9.2,3.8l-11.5-27.7
		l-9.2,3.8l-3.8-9.2l-3.8-9.2l18.5-7.7l3.8,9.2l9.2-3.8l3.8,9.2l9.2-3.8l7.7,18.5l9.2-3.8l11.5,27.7l9.2-3.8l15.3,36.9l-9.2,3.8
		l11.5,27.7l9.2-3.8l11.5,27.7l9.2-3.8l11.5,27.7l9.2-3.8l19.2,46.2L339.1,205.7z M87.9,17.6l9.2-3.8l3.8,9.2l9.2-3.8l18.5-7.7
		l-3.8-9.2l-18.5,7.7l-3.8-9.2L84,8.3L65.5,16l3.8,9.2l-18.5,7.7l3.8,9.2l18.5-7.7l9.2-3.8l-3.8-9.2L87.9,17.6z M30.9,62.9
		l27.7-11.5l-3.8-9.2L27,53.6L30.9,62.9z M10.8,92.8l-9.2,3.8l7.7,18.5l9.2-3.8L10.8,92.8z M9.2,115.2L0,119l7.7,18.5l9.2-3.8
		L9.2,115.2z M36.1,179.8l-9.2,3.8l7.7,18.5l9.2-3.8L36.1,179.8z M42.8,274.4l9.2-3.8l-11.5-27.7l-9.2,3.8L42.8,274.4z M60.4,342.9
		l-9.2,3.8l11.5,27.7l9.2-3.8L60.4,342.9z M75.7,379.9l7.7,18.5l9.2-3.8L85,376L75.7,379.9z M100.3,413l9.2-3.8l-7.7-18.5l-9.2,3.8
		L100.3,413z M130.3,433l9.2-3.8l-3.8-9.2l-9.2,3.8L130.3,433z M156.4,443.8l9.2-3.8l-3.8-9.2l-9.2,3.8L156.4,443.8z M210.3,443.2
		l3.8,9.2l18.5-7.7l-3.8-9.2L210.3,443.2z M232.6,444.7l3.8,9.2l27.7-11.5l27.7-11.5l-3.8-9.2l-27.7,11.5L232.6,444.7z M107.7,117.6
		l9.2-3.8L97.8,67.6l-9.2,3.8L107.7,117.6z M126.9,163.8l9.2-3.8l-3.8-9.2l-9.2,3.8L126.9,163.8z M136.8,213.8l9.2-3.8l-19.2-46.2
		l-9.2,3.8L136.8,213.8z M131.4,226.9l9.2-3.8l-3.8-9.2l-9.2,3.8L131.4,226.9z M126,240l9.2-3.8l-3.8-9.2l-9.2,3.8L126,240z
		 M111.3,256.9l18.5-7.7L126,240l-18.5,7.7L111.3,256.9z M87.4,277.6l27.7-11.5l-3.8-9.2l-27.7,11.5L87.4,277.6z M62.9,244.5
		l11.5,27.7l9.2-3.8l-11.5-27.7L62.9,244.5z M38.3,211.4l15.3,36.9l9.2-3.8l-15.3-36.9L38.3,211.4z M37.6,157.5l-9.2,3.8l7.7,18.5
		l9.2-3.8L37.6,157.5z M31.5,116.7l-9.2,3.8l15.3,36.9l9.2-3.8L31.5,116.7z M29.3,85.2L20,89l11.5,27.7l9.2-3.8L29.3,85.2z
		 M34.7,72.1l-9.2,3.8l3.8,9.2l9.2-3.8L34.7,72.1z M80.9,53l-9.2,3.8l3.8,9.2l9.2-3.8L80.9,53z M66.2,69.9l26.8,64.7l9.2-3.8
		L75.5,66L66.2,69.9z M102.3,130.7l3.8,9.2l9.2-3.8l-3.8-9.2L102.3,130.7z M160.2,9.2L156.3,0l-27.7,11.5l3.8,9.2L160.2,9.2z
		 M302.6,404.8l18.5-7.7l-3.8-9.2l-18.5,7.7L302.6,404.8z M288,421.7l18.5-7.7l-3.8-9.2l-18.5,7.7L288,421.7z M244.5,212.4l9.2-3.8
		l3.8,9.2l9.2-3.8l-3.8-9.2l9.2-3.8l-3.8-9.2l-27.7,11.5L244.5,212.4z M276,210.2l9.2-3.8l-3.8-9.2l-9.2,3.8L276,210.2z
		 M279.8,219.4l-3.8-9.2l-9.2,3.8l3.8,9.2L279.8,219.4z M252.1,230.9l9.2-3.8l-3.8-9.2l-9.2,3.8L252.1,230.9z M283.7,228.7l9.2-3.8
		l-3.8-9.2l-9.2,3.8L283.7,228.7z M274.4,232.5l-3.8-9.2l-9.2,3.8l3.8,9.2L274.4,232.5z M278.3,241.7l9.2-3.8l-3.8-9.2l-9.2,3.8
		L278.3,241.7z M256,240.2l3.8,9.2l9.2-3.8l-3.8-9.2L256,240.2z M291.3,247.1l9.2-3.8l-3.8-9.2l-9.2,3.8L291.3,247.1z M269,245.6
		l3.8,9.2l9.2-3.8l-3.8-9.2L269,245.6z M282.1,251l3.8,9.2l9.2-3.8l-3.8-9.2L282.1,251z M272.9,254.8l-9.2,3.8l3.8,9.2l9.2-3.8
		L272.9,254.8z M280.5,273.3l9.2-3.8l-3.8-9.2l-9.2,3.8L280.5,273.3z M293.6,278.7l9.2-3.8l-3.8-9.2l-9.2,3.8L293.6,278.7z
		 M280.5,273.3l-9.2,3.8l3.8,9.2l9.2-3.8L280.5,273.3z M288.2,291.7l9.2-3.8l-3.8-9.2l-9.2,3.8L288.2,291.7z M301.3,297.2l9.2-3.8
		l-3.8-9.2l-9.2,3.8L301.3,297.2z M279,295.6l3.8,9.2l9.2-3.8l-3.8-9.2L279,295.6z M292,301l3.8,9.2l9.2-3.8l-3.8-9.2L292,301z
		 M286.6,314.1l3.8,9.2l9.2-3.8l-3.8-9.2L286.6,314.1z M308.9,315.6l-9.2,3.8l3.8,9.2l9.2-3.8L308.9,315.6z M294.3,332.5l3.8,9.2
		l9.2-3.8l-3.8-9.2L294.3,332.5z M301.9,351l3.8,9.2l9.2-3.8l-3.8-9.2L301.9,351z M248.3,221.7l-3.8-9.2l-9.2,3.8l3.8,9.2
		L248.3,221.7z M239.1,225.5l-9.2,3.8l3.8,9.2l9.2-3.8L239.1,225.5z M242.9,234.8l3.8,9.2l9.2-3.8l-3.8-9.2L242.9,234.8z M226,220.1
		l-9.2,3.8l3.8,9.2l9.2-3.8L226,220.1z M203.7,218.5l3.8,9.2l9.2-3.8l-3.8-9.2L203.7,218.5z M190.6,213.1l3.8,9.2l9.2-3.8l-3.8-9.2
		L190.6,213.1z M177.6,207.7l3.8,9.2l9.2-3.8l-3.8-9.2L177.6,207.7z M149.2,165.4l3.8,9.2l9.2-3.8l-3.8-9.2L149.2,165.4z
		 M156.8,183.8l3.8,9.2l9.2-3.8l-3.8-9.2L156.8,183.8z M164.5,202.3l3.8,9.2l9.2-3.8l-3.8-9.2L164.5,202.3z M250.6,253.2l3.8,9.2
		l9.2-3.8l-3.8-9.2L250.6,253.2z M237.5,247.8l3.8,9.2l9.2-3.8l-3.8-9.2L237.5,247.8z M233.7,238.6l-9.2,3.8l3.8,9.2l9.2-3.8
		L233.7,238.6z M211.4,237l3.8,9.2l9.2-3.8l-3.8-9.2L211.4,237z M267.5,267.9l-9.2,3.8l3.8,9.2l9.2-3.8L267.5,267.9z M245.2,266.3
		l3.8,9.2l9.2-3.8l-3.8-9.2L245.2,266.3z M232.1,260.9l3.8,9.2l9.2-3.8l-3.8-9.2L232.1,260.9z M219,255.5l3.8,9.2l9.2-3.8l-3.8-9.2
		L219,255.5z M275.1,286.3l-9.2,3.8l3.8,9.2l9.2-3.8L275.1,286.3z M252.8,284.8l3.8,9.2l9.2-3.8l-3.8-9.2L252.8,284.8z M273.5,308.6
		l3.8,9.2l9.2-3.8l-3.8-9.2L273.5,308.6z M260.5,303.2l3.8,9.2l9.2-3.8l-3.8-9.2L260.5,303.2z"/>
</g>
<g id="change3_1">
	<path class="st2" d="M78.9,335.3l23,55.4l-9.2,3.8l-11.5-27.7l-9.2,3.8l-19.2-46.2l9.2-3.8l-19.2-46.2l9.2-3.8l-11.5-27.7l9.2-3.8
		l3.8,9.2l9.2-3.8l11.5,27.7l9.2-3.8l7.7,18.5l-9.2,3.8l7.7,18.5l-9.2,3.8l7.7,18.5L78.9,335.3z M37.6,157.5l-15.3-36.9l9.2-3.8
		L20,89l-9.2,3.8l7.7,18.5l-9.2,3.8l11.5,27.7l-9.2,3.8l15.3,36.9l9.2-3.8l-7.7-18.5L37.6,157.5z M25.5,75.9l-9.2,3.8L20,89l9.2-3.8
		L25.5,75.9z M102.3,130.7l9.2-3.8l3.8,9.2l36.9-15.3l-3.8-9.2l9.2-3.8L130.9,43l-9.2,3.8l-3.8-9.2L80.9,53l3.8,9.2L75.5,66
		L102.3,130.7z M88.5,71.4l9.2-3.8l-3.8-9.2l18.5-7.7l3.8,9.2l9.2-3.8l19.2,46.2l-9.2,3.8l3.8,9.2l-18.5,7.7l-3.8-9.2l-9.2,3.8
		L88.5,71.4z M135.4,106.1l-19.2-46.2l-18.5,7.7l19.2,46.2L135.4,106.1z M101.9,390.7l7.7,18.5l9.2-3.8l-7.7-18.5L101.9,390.7z
		 M118.8,405.3l7.7,18.5l9.2-3.8l-7.7-18.5L118.8,405.3z M135.7,420l3.8,9.2l9.2-3.8l-3.8-9.2L135.7,420z M148.7,425.4l3.8,9.2
		l9.2-3.8l-3.8-9.2L148.7,425.4z M161.8,430.8l3.8,9.2l18.5-7.7l-3.8-9.2L161.8,430.8z M184.1,432.4l3.8,9.2l18.5-7.7l-3.8-9.2
		L184.1,432.4z M206.4,433.9l3.8,9.2l18.5-7.7l-3.8-9.2L206.4,433.9z M232.6,444.7l55.4-23l-3.8-9.2l-55.4,23L232.6,444.7z
		 M45.3,176l-9.2,3.8l26.8,64.7l9.2-3.8L45.3,176z M92.8,264.5l9.2-3.8l-3.8-9.2l-9.2,3.8l-7.7-18.5l-9.2,3.8l11.5,27.7L92.8,264.5z
		 M45.3,176l9.2-3.8l-7.7-18.5l-9.2,3.8L45.3,176z M46.9,153.7l9.2-3.8l-15.3-36.9l-9.2,3.8L46.9,153.7z M50,109.1L38.5,81.4
		l-9.2,3.8l11.5,27.7L50,109.1z M43.9,68.3l18.5-7.7l-3.8-9.2L40.1,59l-9.2,3.8l7.7,18.5l9.2-3.8L43.9,68.3z M64,38.3l-9.2,3.8
		l3.8,9.2l9.2-3.8L64,38.3z M146,210l9.2-3.8L136.1,160l-9.2,3.8L146,210z M145.3,156.1l-3.8-9.2l-9.2,3.8l3.8,9.2L145.3,156.1z
		 M140.6,223.1l9.2-3.8L146,210l-9.2,3.8L140.6,223.1z M135.2,236.1l9.2-3.8l-3.8-9.2l-9.2,3.8L135.2,236.1z M129.8,249.2l9.2-3.8
		l-3.8-9.2L126,240L129.8,249.2z M115.2,266.1l18.5-7.7l-3.8-9.2l-18.5,7.7L115.2,266.1z M146.9,133.8l3.8,9.2l9.2-3.8l-3.8-9.2
		L146.9,133.8z M160,139.2l3.8,9.2l9.2-3.8l-3.8-9.2L160,139.2z M173,144.6l19.2,46.2l9.2-3.8l-19.2-46.2L173,144.6z M201.4,187
		l3.8,9.2l9.2-3.8l-3.8-9.2L201.4,187z M214.5,192.4l3.8,9.2l18.5-7.7l-3.8-9.2L214.5,192.4z M236.8,194l3.8,9.2l27.7-11.5l-3.8-9.2
		L236.8,194z"/>
</g>
<g id="change1_3">
	<path class="st0" d="M183,194.7l-9.2,3.8l-3.8-9.2l9.2-3.8l-3.8-9.2l-9.2,3.8l-3.8-9.2l9.2-3.8l-3.8-9.2l-9.2,3.8l-3.8-9.2
		l-9.2,3.8l-3.8-9.2l-9.2,3.8l-3.8-9.2l-9.2,3.8l-3.8-9.2l18.5-7.7l-3.8-9.2l-9.2,3.8l-3.8-9.2l9.2-3.8l9.2-3.8l-19.2-46.2l-9.2,3.8
		l-9.2,3.8l-3.8-9.2l9.2-3.8l-3.8-9.2L80.9,53L77,43.7l9.2-3.8l-3.8-9.2l9.2-3.8l9.2-3.8l3.8,9.2l9.2-3.8l3.8,9.2l9.2-3.8l3.8,9.2
		l9.2-3.8l26.8,64.7l-9.2,3.8l3.8,9.2l-9.2,3.8l3.8,9.2l-9.2,3.8l3.8,9.2l9.2-3.8l3.8,9.2l9.2-3.8l19.2,46.2l9.2-3.8l3.8,9.2
		l9.2-3.8l3.8,9.2l18.5-7.7l3.8,9.2l-9.2,3.8l3.8,9.2l-9.2,3.8l-3.8-9.2l-9.2,3.8l-3.8-9.2l-9.2,3.8l-3.8-9.2l-9.2,3.8L183,194.7z"
		/>
</g>
<g id="change4_1">
	<path class="st3" d="M268.8,375.6l-9.2,3.8l7.7,18.5l9.2-3.8l-3.8-9.2l9.2-3.8l-3.8-9.2L268.8,375.6z M194.9,406.2l3.8,9.2
		l18.5-7.7l-3.8-9.2L194.9,406.2z M230.3,413.2l-3.8-9.2l-9.2,3.8l3.8,9.2L230.3,413.2z M248.8,405.5l9.2-3.8l-7.7-18.5l-9.2,3.8
		l-18.5,7.7l3.8,9.2l18.5-7.7L248.8,405.5z M295,386.4l-3.8-9.2l-9.2,3.8l3.8,9.2L295,386.4z"/>
</g>
</svg>
