<svg id="Layer_1" data-name="Layer 1" xmlns="http://www.w3.org/2000/svg" viewBox="0 0 111.77 33.72"><path d="M106.77,5.9A12.52,12.52,0,0,0,96.17,0H12.5A12.5,12.5,0,0,0,0,12.5v5.32a12.6,12.6,0,0,0,5,10,12.46,12.46,0,0,0,10.45,5.9H99.27a12.5,12.5,0,0,0,12.5-12.5V15.9a12.6,12.6,0,0,0-5-10" style="fill:#f3f3f3"/><path d="M1,17.82V12.5A11.57,11.57,0,0,1,12.5,1H96.17a11.57,11.57,0,0,1,11.5,11.5v5.32a11.57,11.57,0,0,1-11.5,11.5H12.5A11.5,11.5,0,0,1,1,17.82" style="fill:#fff"/><path d="M110.87,21.22a11.65,11.65,0,0,1-11.6,11.5H15.45a11.17,11.17,0,0,1-8-3.5,12.74,12.74,0,0,0,5.2,1.1H96.27a12.5,12.5,0,0,0,12.5-12.5V12.5a14.1,14.1,0,0,0-.7-4.1,11.55,11.55,0,0,1,2.8,7.5v5.32" style="fill:#f3f3f3"/></svg>